<?xml version="1.0" standalone="no"?>
<!DOCTYPE svg PUBLIC "-//W3C//DTD SVG 20010904//EN"
 "http://www.w3.org/TR/2001/REC-SVG-20010904/DTD/svg10.dtd">
<svg version="1.0" xmlns="http://www.w3.org/2000/svg"
 width="1080.000000pt" height="1080.000000pt" viewBox="0 0 1080.000000 1080.000000"
 preserveAspectRatio="xMidYMid meet">

<g transform="translate(0.000000,1080.000000) scale(0.100000,-0.100000)"
fill="#000000" stroke="none">
<path d="M6232 9878 c-7 -7 -12 -16 -12 -22 0 -5 -11 -32 -24 -60 -13 -28 -54
-118 -91 -201 -77 -175 -81 -182 -135 -297 -64 -139 -64 -137 -32 -143 15 -4
45 -11 67 -16 100 -25 165 -40 230 -54 39 -8 108 -23 155 -34 47 -11 91 -20
97 -20 12 -1 63 88 63 109 0 14 -29 24 -137 49 -199 45 -273 64 -271 71 2 3
19 41 38 83 34 75 36 77 71 77 19 0 55 -6 80 -14 24 -8 86 -24 137 -36 88 -20
95 -20 113 -5 20 19 43 78 37 97 -4 12 -25 18 -223 64 -60 14 -112 28 -114 30
-2 2 7 25 19 51 13 26 29 63 37 82 12 27 18 32 36 27 12 -3 49 -11 82 -17 33
-6 76 -17 95 -24 20 -7 62 -16 95 -20 33 -4 66 -12 72 -17 21 -17 42 -1 65 49
12 27 24 51 26 55 8 16 -51 34 -243 73 -38 8 -117 25 -175 39 -58 14 -114 28
-126 31 -11 2 -26 -1 -32 -7z"/>
<path d="M5235 9780 c-162 -40 -265 -169 -265 -332 0 -109 42 -186 129 -240
66 -42 274 -41 356 1 79 41 80 43 44 95 -18 25 -39 46 -46 46 -7 0 -30 -9 -50
-20 -28 -15 -57 -20 -115 -20 -73 0 -78 1 -112 34 -23 21 -36 43 -36 59 l0 25
178 6 c97 4 200 10 227 14 l50 7 3 73 c3 85 -16 137 -71 190 -61 59 -193 87
-292 62z m174 -144 c11 -10 25 -34 32 -54 10 -30 9 -36 -6 -44 -17 -10 -275
-11 -284 -2 -11 11 36 79 69 102 30 20 44 23 102 20 47 -2 73 -9 87 -22z"/>
<path d="M4824 9746 c-18 -8 -50 -30 -71 -50 -40 -36 -53 -37 -53 -5 0 9 -7
19 -15 22 -23 9 -114 -4 -125 -19 -11 -12 -33 -594 -24 -603 8 -8 136 17 147
28 6 6 14 75 18 153 8 170 15 213 40 254 24 39 49 56 116 78 46 15 53 21 58
50 4 18 5 48 3 67 -3 30 -7 34 -33 36 -16 2 -44 -4 -61 -11z"/>
<path d="M4310 9653 c-14 -2 -46 -11 -72 -20 -46 -16 -48 -19 -48 -55 0 -21
-2 -38 -4 -38 -2 0 -20 7 -39 15 -120 50 -308 -43 -368 -182 -53 -125 -26
-277 65 -368 59 -59 116 -80 198 -73 72 7 126 33 182 87 32 31 33 32 47 12 14
-20 14 -20 79 3 40 14 66 29 68 39 3 16 -1 57 -33 292 -8 55 -19 141 -26 190
-6 50 -14 92 -18 96 -3 3 -17 3 -31 2z m-166 -227 c18 -7 44 -29 57 -47 20
-29 24 -46 24 -109 0 -86 -19 -123 -86 -166 -104 -65 -219 11 -219 146 0 88
47 155 123 177 57 15 63 15 101 -1z"/>
<path d="M6897 9478 c-19 -27 -130 -186 -217 -314 -8 -12 -34 -49 -57 -83 -24
-35 -43 -65 -43 -67 0 -7 129 -64 143 -64 7 0 28 24 48 53 148 217 176 252
226 273 46 20 90 17 141 -7 79 -39 80 -94 4 -204 -107 -154 -125 -181 -138
-196 -23 -27 -16 -38 40 -64 88 -40 92 -39 148 40 171 245 187 272 195 336 4
32 0 57 -12 83 -42 89 -169 155 -277 143 l-54 -5 4 29 c4 26 0 31 -34 44 -22
9 -47 20 -56 25 -27 15 -35 12 -61 -22z"/>
<path d="M3546 9402 l-58 -36 6 -113 c3 -62 9 -165 12 -228 5 -79 3 -115 -4
-115 -6 0 -35 28 -65 63 -221 252 -208 239 -226 224 -9 -8 -36 -25 -60 -38
l-44 -24 7 -235 6 -235 -50 55 c-28 30 -87 99 -131 153 -45 53 -86 97 -93 97
-16 0 -116 -69 -116 -80 0 -5 26 -38 58 -74 31 -36 118 -135 192 -220 74 -85
139 -155 144 -155 4 -1 38 18 76 41 l67 42 -4 110 c-2 61 -8 151 -14 199 -15
140 -10 140 127 -16 65 -75 126 -136 134 -136 26 -1 140 77 140 96 0 77 -21
605 -26 631 -3 17 -8 32 -12 31 -4 0 -33 -17 -66 -37z"/>
<path d="M7595 9086 c-96 -24 -169 -80 -213 -164 -31 -59 -31 -169 0 -221 53
-89 137 -147 229 -158 27 -3 49 -10 49 -14 0 -5 -18 -21 -40 -35 -57 -38 -125
-43 -183 -15 -61 30 -130 92 -161 146 -15 25 -31 45 -35 45 -15 0 -121 -49
-121 -56 0 -11 42 -77 76 -120 68 -85 254 -184 345 -184 42 0 117 28 179 66
30 19 145 121 255 228 227 221 216 196 115 264 l-45 31 -37 -37 -38 -36 0 34
c-1 102 -101 197 -243 229 -57 13 -67 13 -132 -3z m185 -166 c71 -36 105 -111
76 -167 -21 -43 -79 -90 -125 -104 -33 -10 -47 -9 -83 5 -57 23 -116 81 -124
123 -8 41 31 112 78 141 45 27 126 28 178 2z"/>
<path d="M2397 8773 c-31 -26 -56 -54 -56 -61 -1 -13 27 -62 41 -72 4 -3 11
-17 16 -30 8 -21 5 -30 -21 -58 -31 -32 -31 -33 -14 -60 9 -15 22 -39 29 -54
15 -34 19 -34 48 -3 13 14 28 25 34 25 6 0 22 -19 36 -42 14 -23 40 -64 58
-91 17 -27 32 -53 32 -58 0 -5 18 -29 40 -53 54 -58 110 -75 172 -52 69 27
158 117 158 161 0 14 -14 30 -41 49 l-42 27 -32 -36 c-34 -37 -69 -45 -96 -22
-22 18 -149 221 -149 238 0 3 25 29 55 56 l54 50 -36 57 -36 57 -47 -46 c-25
-25 -51 -45 -57 -45 -7 0 -24 20 -38 44 -43 73 -46 73 -108 19z"/>
<path d="M8462 8787 c-15 -16 -22 -36 -22 -64 0 -36 5 -46 37 -72 42 -34 78
-39 122 -16 53 27 57 94 10 143 -27 27 -39 32 -78 32 -37 0 -53 -5 -69 -23z"/>
<path d="M2143 8671 c-140 -102 -170 -237 -82 -375 l30 -49 -32 -33 -32 -33
33 -43 c19 -24 37 -47 42 -52 5 -6 22 3 41 23 l34 32 21 -28 c12 -15 49 -64
82 -108 113 -151 165 -215 177 -215 15 0 103 91 103 108 0 7 -55 84 -122 173
-172 225 -161 198 -105 258 26 27 47 54 47 58 0 18 -63 83 -80 83 -9 0 -34
-21 -55 -46 l-37 -45 -24 22 c-18 17 -24 33 -24 65 0 36 6 49 35 77 19 19 35
43 35 53 0 19 -35 104 -43 104 -2 0 -22 -13 -44 -29z"/>
<path d="M8095 8494 c-121 -91 -229 -173 -240 -184 -19 -19 -19 -20 10 -51 17
-17 42 -40 57 -50 33 -24 38 -22 153 63 239 177 351 261 357 271 6 9 -99 117
-112 116 -3 0 -104 -75 -225 -165z"/>
<path d="M8422 8315 c-85 -47 -155 -85 -157 -85 -16 0 -195 -115 -195 -125 0
-8 17 -34 38 -59 26 -31 45 -45 63 -45 23 -1 189 82 229 114 8 7 42 22 74 34
62 23 84 22 144 -6 34 -16 92 -90 92 -117 0 -35 -66 -88 -211 -167 -82 -45
-149 -85 -149 -90 0 -4 22 -35 50 -68 l50 -60 91 51 c50 27 110 60 133 73 22
13 60 33 84 45 51 26 112 98 121 143 12 54 -5 125 -40 170 -40 53 -102 100
-153 117 -35 11 -37 14 -23 25 9 7 17 17 17 23 0 16 -79 112 -93 112 -6 0 -81
-38 -165 -85z"/>
<path d="M1894 7964 c-63 -30 -134 -103 -170 -176 -33 -66 -46 -222 -22 -260
8 -13 18 -35 21 -49 10 -40 94 -127 151 -156 40 -21 66 -27 116 -27 110 0 198
62 265 185 39 72 40 76 39 174 0 88 -3 106 -26 150 -79 153 -244 223 -374 159z
m176 -182 c41 -30 90 -110 90 -149 0 -76 -83 -173 -147 -173 -65 0 -156 82
-183 166 -10 29 -8 41 13 87 29 60 48 80 97 101 30 12 39 12 70 0 19 -8 46
-23 60 -32z"/>
<path d="M8812 7711 c-123 -46 -191 -127 -199 -236 -8 -111 65 -255 169 -332
49 -36 79 -31 106 18 l24 41 -59 56 c-69 66 -99 130 -90 188 6 34 40 84 58 84
4 0 38 -55 76 -121 90 -161 136 -241 149 -262 10 -17 13 -17 55 1 63 28 128
88 150 140 59 138 -26 328 -184 409 -71 36 -180 42 -255 14z m202 -142 c46
-13 82 -48 114 -112 l23 -45 -21 -39 c-21 -37 -46 -63 -61 -63 -11 0 -149 252
-143 262 7 11 42 10 88 -3z"/>
<path d="M1348 7472 c-121 -130 -184 -334 -142 -460 26 -74 105 -148 168 -157
89 -14 144 18 250 144 39 45 84 90 100 98 26 14 32 14 61 0 84 -40 42 -198
-88 -330 -76 -77 -75 -63 -9 -135 12 -14 22 -29 22 -33 0 -36 92 42 150 126
17 24 45 75 62 112 31 65 32 74 33 189 0 115 -1 122 -28 163 -40 61 -108 101
-171 101 -69 0 -118 -32 -200 -132 -90 -108 -102 -118 -142 -118 -85 0 -101
97 -36 222 21 40 54 90 75 111 21 22 34 44 30 50 -15 26 -76 97 -83 97 -4 0
-27 -21 -52 -48z"/>
<path d="M9103 7082 c-140 -50 -202 -142 -190 -283 9 -112 73 -228 159 -290
l26 -19 37 49 36 50 -39 39 c-39 39 -82 130 -82 173 0 35 29 84 59 102 27 16
29 16 34 -1 3 -9 17 -48 32 -87 15 -38 31 -86 37 -105 5 -19 16 -46 23 -60 7
-14 23 -58 36 -98 23 -72 24 -73 53 -66 92 20 171 76 207 146 27 53 26 168 -3
244 -29 76 -111 164 -180 194 -73 32 -176 37 -245 12z m209 -151 c25 -11 58
-36 76 -59 26 -32 32 -49 32 -88 0 -27 -3 -59 -6 -70 -6 -22 -68 -63 -79 -52
-3 3 -22 50 -41 104 -60 165 -60 164 -43 175 18 11 10 12 61 -10z"/>
<path d="M9057 6374 c-8 -8 2 -54 14 -69 4 -6 9 -28 11 -50 l3 -40 185 0 c177
0 187 -1 223 -24 45 -27 83 -83 92 -135 l7 -36 80 0 c78 0 79 0 72 23 -18 56
-44 106 -73 137 -37 41 -38 48 -8 52 19 3 22 8 20 43 -1 22 -5 55 -8 73 l-6
32 -303 0 c-166 0 -306 -3 -309 -6z"/>
<path d="M1250 6353 c-68 -23 -107 -59 -141 -129 -29 -59 -31 -71 -31 -167 0
-87 3 -110 22 -147 31 -61 86 -127 113 -136 12 -3 28 -11 35 -17 27 -22 117
-47 167 -47 27 0 69 9 92 20 54 24 131 100 138 137 4 15 13 43 21 61 19 44 19
200 0 244 -8 18 -17 41 -20 51 -5 17 -8 17 -33 3 -16 -8 -43 -20 -60 -26 -37
-14 -39 -18 -18 -46 9 -12 14 -43 15 -90 0 -91 -25 -146 -78 -172 -39 -19 -72
-19 -72 1 0 27 21 185 31 227 5 25 13 77 18 115 4 39 11 77 15 86 5 12 -5 19
-47 32 -66 21 -108 21 -167 0z m100 -169 c0 -14 -4 -34 -10 -44 -5 -10 -14
-61 -18 -115 -10 -107 -19 -125 -51 -103 -79 55 -96 185 -35 258 22 25 33 30
70 30 41 0 44 -2 44 -26z"/>
<path d="M9147 5933 c-3 -5 -2 -42 1 -83 l7 -75 85 -6 c47 -3 94 -9 105 -12
11 -4 83 -11 160 -17 77 -6 163 -14 192 -17 46 -4 52 -3 58 16 3 12 3 46 0 76
-7 52 -9 55 -44 65 -20 6 -85 15 -146 20 -60 6 -150 14 -200 19 -187 20 -213
22 -218 14z"/>
<path d="M9870 5851 c-5 -11 -10 -43 -10 -71 0 -42 5 -55 25 -74 91 -84 200
19 141 133 -16 30 -19 31 -81 31 -53 0 -66 -3 -75 -19z"/>
<path d="M1045 5680 c-4 -6 -4 -27 0 -46 10 -57 -2 -94 -31 -94 -14 0 -33 4
-42 9 -9 4 -32 11 -49 14 l-33 7 0 -85 0 -84 38 -10 c21 -6 54 -14 73 -17 41
-9 49 -18 49 -66 0 -34 3 -38 34 -43 61 -12 81 -4 81 32 1 18 3 34 5 36 3 3
25 1 50 -4 25 -4 72 -13 105 -19 33 -6 74 -15 91 -21 91 -28 182 20 206 108
13 47 14 116 1 163 l-9 35 -59 0 -60 0 3 -47 c8 -106 -15 -109 -305 -43 -21 5
-23 11 -23 80 0 73 0 75 -27 80 -53 12 -58 13 -74 20 -10 3 -20 1 -24 -5z"/>
<path d="M9187 5643 c-4 -3 -7 -41 -7 -84 0 -73 1 -79 23 -83 73 -15 228 -51
287 -67 94 -26 140 -84 140 -179 0 -42 -5 -55 -26 -75 -40 -37 -102 -33 -299
21 -27 7 -69 16 -92 20 l-41 6 -7 -43 c-4 -24 -5 -62 -3 -84 3 -34 7 -40 28
-43 14 -1 48 -9 75 -17 199 -58 364 -73 416 -37 61 41 99 113 99 191 0 48 -28
143 -49 164 -18 18 -13 25 17 29 27 3 27 4 30 79 l3 77 -68 11 c-37 6 -79 16
-93 20 -14 5 -70 19 -125 30 -55 12 -118 26 -140 32 -22 5 -60 14 -85 20 -25
5 -52 12 -61 14 -8 3 -18 2 -22 -2z"/>
<path d="M1020 5116 c0 -51 32 -136 51 -136 46 0 49 -10 18 -58 -24 -38 -29
-57 -29 -106 0 -56 12 -113 31 -146 5 -8 15 -29 23 -46 15 -35 70 -81 136
-114 38 -20 61 -23 145 -23 112 0 149 11 209 63 59 52 80 102 80 190 0 78 -21
137 -65 186 -19 20 -19 21 6 32 24 11 25 15 19 64 -12 97 -5 94 -228 103 -108
4 -241 10 -296 14 l-100 6 0 -29z m430 -176 c43 -22 60 -43 86 -108 14 -37 15
-49 4 -82 -7 -22 -26 -52 -42 -67 -27 -26 -35 -28 -111 -28 -74 0 -85 3 -119
28 -45 35 -68 82 -68 140 0 63 14 94 52 117 45 27 144 27 198 0z"/>
<path d="M8962 4928 c-22 -35 -44 -76 -48 -93 -4 -16 -11 -35 -15 -41 -15 -19
-29 -163 -22 -223 8 -74 43 -141 99 -190 45 -39 155 -101 226 -126 20 -8 60
-25 90 -38 201 -95 281 -128 289 -120 9 9 39 111 39 130 0 8 -15 20 -34 28
-43 18 -52 32 -26 40 28 9 77 61 103 109 18 34 21 58 21 136 0 83 -3 101 -26
145 -33 63 -100 128 -158 154 -58 26 -186 29 -236 5 -95 -45 -175 -238 -132
-317 15 -29 17 -57 4 -57 -21 0 -74 39 -100 73 -50 66 -28 212 46 308 15 20
28 42 28 49 0 18 -72 90 -91 90 -9 0 -34 -27 -57 -62z m509 -263 c40 -26 79
-98 78 -142 -1 -79 -66 -163 -125 -163 -42 0 -110 37 -142 78 -27 34 -32 48
-32 96 0 75 35 138 90 159 27 11 94 -3 131 -28z"/>
<path d="M1575 4394 c-127 -18 -243 -43 -275 -60 -14 -7 -38 -26 -55 -44 -29
-30 -30 -35 -30 -123 0 -83 3 -97 28 -139 16 -26 46 -63 68 -82 36 -33 37 -36
16 -36 -13 0 -26 -2 -29 -5 -3 -3 6 -40 20 -81 l25 -76 46 6 c25 4 66 11 91
16 46 9 137 21 336 44 62 8 116 16 122 20 10 6 -25 126 -41 142 -10 11 -114 5
-215 -11 -152 -25 -225 -14 -273 41 -25 29 -42 91 -34 130 5 31 13 39 58 58
33 15 82 25 133 29 44 3 93 11 108 17 15 5 44 10 64 10 63 0 67 8 40 86 l-24
69 -39 1 c-22 1 -85 -5 -140 -12z"/>
<path d="M8893 3913 c-109 -112 -171 -278 -149 -396 9 -48 71 -112 124 -128
39 -11 47 -10 87 10 25 12 62 43 83 69 20 25 53 64 74 86 33 37 39 40 65 31
18 -7 29 -19 31 -33 6 -41 -31 -124 -80 -178 -27 -28 -48 -59 -48 -69 0 -21
51 -94 65 -95 14 0 84 75 119 128 36 53 76 173 76 227 0 59 -40 137 -84 165
-31 19 -47 22 -99 18 -61 -5 -61 -5 -119 -69 -32 -35 -60 -71 -63 -80 -3 -9
-21 -24 -39 -34 -44 -24 -66 -9 -66 43 0 52 37 120 103 189 l60 61 -33 46
c-19 26 -41 46 -52 46 -10 0 -35 -17 -55 -37z"/>
<path d="M1677 3681 c-77 -38 -104 -65 -134 -130 -36 -78 -29 -170 18 -260 33
-63 110 -151 132 -151 6 0 18 -6 26 -14 9 -7 38 -21 65 -30 153 -50 332 31
386 174 23 62 24 133 2 177 -5 10 -19 39 -31 66 -30 67 -93 131 -164 167 -54
27 -70 30 -151 30 -80 0 -98 -3 -149 -29z m293 -166 c44 -41 60 -76 60 -128 0
-57 -27 -92 -94 -123 -64 -30 -118 -30 -165 -2 -100 60 -128 171 -58 236 45
42 78 53 154 50 64 -3 76 -7 103 -33z"/>
<path d="M8595 3348 c-44 -15 -92 -65 -120 -125 -38 -79 -34 -97 22 -119 27
-11 51 -20 54 -22 4 -1 9 11 12 27 8 38 40 71 70 71 15 0 55 -33 126 -104
l104 -104 -42 -63 -42 -62 38 -39 c44 -45 69 -48 86 -10 6 15 22 38 34 52 l23
25 51 -52 52 -51 43 63 c24 35 44 68 44 73 0 5 -12 19 -26 33 -14 13 -35 36
-46 52 l-20 27 21 36 c21 35 21 36 2 62 -31 43 -57 63 -75 56 -9 -3 -16 -9
-16 -13 0 -3 -7 -15 -15 -26 -15 -18 -20 -15 -123 87 -132 132 -177 154 -257
126z"/>
<path d="M2255 3105 c-49 -24 -160 -78 -245 -119 -212 -102 -199 -89 -148
-159 26 -36 49 -57 62 -57 11 0 58 19 105 41 405 196 432 211 427 224 -12 32
-81 115 -96 114 -8 0 -55 -20 -105 -44z"/>
<path d="M8330 2984 c-78 -27 -143 -102 -176 -203 -13 -41 -19 -50 -26 -37 -5
9 -15 16 -22 16 -15 0 -106 -94 -106 -108 0 -6 37 -61 83 -123 45 -63 120
-167 165 -231 46 -64 89 -121 96 -127 9 -8 27 4 69 48 l57 58 -95 133 c-109
150 -135 197 -135 238 0 74 66 156 125 156 41 0 65 -20 133 -112 112 -151 148
-196 158 -199 6 -2 34 23 62 55 l51 58 -32 41 c-18 23 -61 83 -97 134 -86 122
-126 167 -169 189 -55 27 -92 31 -141 14z"/>
<path d="M2380 2880 c-20 -12 -46 -36 -58 -54 -33 -48 -29 -95 15 -174 68
-125 74 -137 71 -162 -3 -21 -9 -25 -39 -28 -33 -3 -43 3 -85 45 -27 27 -61
74 -76 105 -28 56 -28 56 -63 48 -54 -12 -87 -37 -80 -60 21 -66 108 -175 185
-232 19 -14 61 -34 94 -43 74 -23 134 -11 185 39 61 61 55 141 -19 255 -22 34
-42 72 -46 86 -8 32 11 55 45 55 38 0 149 -120 178 -191 13 -34 26 -53 35 -50
7 2 35 8 62 14 48 10 48 10 43 43 -13 79 -141 236 -236 290 -65 37 -162 43
-211 14z"/>
<path d="M1635 2828 c-59 -34 -61 -94 -6 -149 45 -46 86 -51 132 -18 25 18 29
27 29 69 0 42 -4 51 -35 79 -38 33 -83 40 -120 19z"/>
<path d="M2810 2493 c-26 -10 -61 -47 -82 -87 -31 -60 -14 -104 95 -241 26
-33 47 -68 47 -78 0 -22 -41 -41 -73 -33 -42 10 -125 79 -154 128 -15 26 -32
48 -36 48 -22 0 -107 -47 -107 -60 0 -39 122 -167 203 -212 55 -31 143 -50
190 -41 76 14 137 79 137 146 0 47 -29 101 -90 172 -54 61 -69 97 -50 120 40
49 155 -24 232 -147 16 -27 33 -48 36 -48 25 0 112 46 112 60 0 58 -155 211
-263 261 -41 18 -160 26 -197 12z"/>
<path d="M7794 2466 c-73 -18 -143 -72 -179 -140 -28 -51 -31 -54 -47 -39 -16
15 -21 14 -55 -11 -81 -56 -88 -63 -76 -78 6 -7 25 -47 43 -88 28 -64 61 -135
170 -365 17 -37 52 -113 110 -243 15 -34 29 -51 37 -48 23 9 123 88 123 97 0
5 -27 65 -60 134 -33 69 -60 130 -60 135 0 6 25 10 55 10 31 0 72 7 93 15 50
21 128 99 159 159 23 45 24 58 21 155 l-3 106 -47 72 c-49 75 -101 115 -168
128 -19 3 -42 8 -50 10 -8 2 -38 -2 -66 -9z m112 -187 c49 -46 68 -88 68 -154
1 -49 -4 -68 -23 -96 -35 -52 -69 -72 -126 -77 -45 -4 -55 -1 -84 24 -40 33
-81 115 -81 162 0 60 53 137 110 161 39 17 108 7 136 -20z"/>
<path d="M3320 2158 c-25 -29 -71 -84 -104 -123 -32 -38 -81 -97 -110 -129
-94 -109 -129 -157 -120 -165 5 -5 37 -24 71 -42 l63 -33 29 28 28 27 6 -30
c9 -44 83 -119 144 -147 71 -33 202 -34 271 -3 95 44 162 119 196 222 21 63
20 96 -5 159 -39 102 -130 164 -246 170 -62 3 -62 3 -47 26 14 21 13 23 -13
34 -15 7 -43 23 -62 35 -19 13 -39 23 -45 23 -6 0 -31 -23 -56 -52z m219 -188
c90 -46 115 -122 66 -206 -32 -55 -106 -104 -157 -104 -92 0 -188 91 -171 161
11 43 69 120 109 144 49 29 103 31 153 5z"/>
<path d="M7130 2054 c-112 -37 -224 -120 -249 -186 -9 -24 -6 -28 29 -52 22
-14 45 -26 52 -26 7 0 34 21 59 48 45 46 118 82 168 82 35 0 101 -38 101 -58
0 -21 -18 -42 -37 -42 -7 0 -91 -39 -188 -86 -154 -76 -175 -90 -175 -111 0
-56 88 -171 148 -194 15 -6 62 -11 104 -11 62 0 89 6 134 26 64 30 170 131
180 174 4 15 11 32 15 38 5 6 12 38 15 71 13 124 -61 269 -161 314 -38 18
-156 25 -195 13z m198 -357 c-2 -31 -12 -64 -24 -80 -50 -67 -171 -92 -220
-46 -34 32 -30 54 14 74 46 21 112 53 132 64 26 14 85 40 94 40 5 1 6 -23 4
-52z"/>
<path d="M6695 1851 c-93 -26 -88 -16 -80 -165 11 -214 9 -261 -11 -295 -28
-47 -72 -74 -130 -79 -92 -8 -107 24 -125 275 -14 179 -9 171 -74 143 -11 -5
-37 -11 -57 -15 l-38 -6 1 -77 c1 -158 30 -356 59 -404 34 -59 74 -78 161 -78
88 0 154 27 210 84 l36 38 7 -26 c8 -31 20 -31 96 -7 l55 18 3 46 c2 25 -4 93
-12 150 -9 58 -16 144 -16 193 0 104 -10 224 -19 223 -3 0 -33 -8 -66 -18z"/>
<path d="M4415 1693 c-16 -31 -40 -76 -53 -99 l-22 -42 -102 34 c-56 19 -110
34 -120 34 -10 0 -38 5 -62 12 -37 10 -56 9 -118 -6 -121 -29 -204 -109 -235
-228 -16 -63 -16 -69 0 -121 30 -95 110 -153 287 -207 41 -12 107 -34 147 -47
40 -14 79 -23 86 -20 8 3 36 45 62 94 27 48 56 102 65 118 9 17 51 93 94 170
42 77 81 147 86 155 5 8 20 35 33 60 13 25 30 55 38 68 17 27 5 38 -51 48 -19
3 -49 12 -67 20 -17 8 -33 14 -35 14 -1 0 -16 -26 -33 -57z m-277 -223 c29
-11 63 -20 76 -20 13 0 30 -7 37 -16 11 -14 10 -21 -5 -48 -10 -17 -39 -70
-64 -118 -25 -49 -51 -88 -58 -88 -38 0 -180 56 -211 83 -33 29 -35 34 -31 84
5 60 47 122 89 134 47 13 115 9 167 -11z"/>
<path d="M5747 1646 c-64 -24 -67 -29 -47 -89 12 -34 22 -51 31 -48 8 3 35 6
60 9 41 3 47 1 63 -23 12 -19 16 -37 12 -59 -4 -17 -11 -78 -16 -135 -5 -67
-13 -107 -22 -112 -7 -5 -36 -9 -64 -9 -62 0 -73 -10 -81 -81 l-6 -52 75 6
c83 7 93 1 77 -53 -4 -14 -7 -39 -8 -57 l-1 -32 53 5 c28 3 66 10 84 15 30 10
32 13 39 77 7 72 14 82 55 82 38 0 51 21 47 77 l-3 48 -44 3 -43 3 6 57 c3 31
9 102 12 158 6 90 4 104 -15 142 -12 23 -32 49 -46 58 -34 22 -168 29 -218 10z"/>
<path d="M5011 1634 c-25 -18 -51 -71 -51 -103 0 -31 47 -80 85 -87 49 -9 98
18 120 66 21 46 15 81 -20 116 -29 29 -98 33 -134 8z"/>
</g>
</svg>
